<svg baseProfile="tiny" xmlns="http://www.w3.org/2000/svg" viewBox="-0.499 -0.501 142.73 49.19"><path d="M6.818 32.72c-.522.224-.618.266-.725.32-.113.058-.156.108-.133.23.005.03.026.092.047.14.017.038.02.062-.006.07-.02.012-.04-.01-.06-.06-.08-.183-.16-.402-.2-.507-.032-.082-.14-.295-.19-.418-.02-.052-.022-.08 0-.09.025-.01.04.008.057.043.016.037.027.057.053.095.057.086.127.088.25.043.113-.04.21-.08.73-.305l.48-.2c.5-.21.667-.4.73-.63.06-.21.008-.37-.043-.49-.062-.15-.19-.312-.39-.392-.27-.11-.582.014-.936.166l-.43.184c-.52.223-.62.264-.726.317-.114.058-.157.107-.132.23.006.03.026.09.043.13.015.036.017.06-.007.07-.024.01-.04-.01-.062-.06-.076-.174-.16-.395-.16-.4-.017-.04-.12-.252-.177-.385-.02-.05-.025-.076 0-.086.023-.018.04 0 .056.042.013.038.025.058.05.096.057.086.127.09.25.044.112-.04.21-.08.73-.304l.37-.158c.38-.165.802-.3 1.174-.118.314.153.458.386.554.607.08.186.21.52.09.868-.08.24-.28.48-.78.696l-.5.22zm-.142-3.82c.283-.07.368-.14.378-.218.008-.066-.004-.138-.017-.195-.01-.04-.007-.063.017-.068.028-.01.043.02.055.07.05.233.07.382.08.45.005.033.054.2.1.393.01.047.012.08-.02.09-.02.003-.036-.02-.04-.055-.01-.05-.03-.11-.058-.16-.05-.09-.16-.08-.48-.016l-2.17.44c-.072.017-.126.017-.134-.02-.01-.04.03-.083.083-.16.038-.054.51-.74.924-1.39.193-.303.61-.91.656-.986l-.003-.02-1.63.396c-.22.054-.284.103-.3.197-.01.06.01.146.02.2.01.044 0 .06-.02.064-.03.01-.044-.03-.056-.087-.042-.185-.07-.36-.086-.44-.01-.04-.05-.177-.09-.355-.01-.048-.018-.085.013-.09.02-.006.04.014.05.06.006.034.013.063.033.104.05.1.136.11.34.07l2.314-.47c.08-.017.115-.01.124.023.01.04-.02.093-.05.142-.17.276-.545.85-.838 1.31-.306.485-.673.99-.73 1.07l.005.013 1.526-.375zM4.87 25.555c-.565.035-.67.042-.79.058-.126.016-.188.057-.2.14-.01.042-.01.09-.007.136.002.03-.004.06-.034.06-.03 0-.04-.03-.04-.09-.01-.14-.02-.38-.02-.49-.01-.094-.03-.313-.04-.456-.01-.048 0-.08.02-.08.03-.003.04.02.04.06.002.035.01.064.02.11.023.1.09.125.22.122.12 0 .225-.007.792-.043l.657-.04c.362-.02.657-.04.816-.065.1-.02.166-.05.173-.16.004-.055.006-.137.003-.193-.003-.04.006-.06.025-.06.023 0 .04.03.04.07.016.247.02.48.025.584.003.086.03.32.04.47.002.05-.007.075-.034.076-.017 0-.03-.014-.03-.06-.004-.055-.016-.1-.024-.132-.02-.075-.085-.094-.194-.098-.158-.01-.453.01-.815.03l-.66.042zm-.8-1.68c-.21.074-.255.135-.3.268-.02.055-.023.114-.025.145-.002.033-.014.043-.037.042-.03-.002-.03-.043-.026-.1.013-.197.038-.41.045-.54.006-.093.006-.273.02-.46.002-.045.012-.085.038-.084.026.002.032.024.03.06-.003.06-.003.115.017.146.018.026.042.04.076.042.05.003.155-.024.293-.067l1.74-.535v-.015c-.4-.188-1.57-.75-1.81-.854-.05-.02-.1-.04-.13-.042-.03 0-.06.02-.074.05-.02.048-.024.1-.027.15-.005.035-.01.064-.036.06-.03 0-.034-.034-.03-.104.01-.19.033-.343.036-.39.003-.064.003-.24.01-.354.003-.05.013-.08.04-.077.025 0 .03.022.03.06-.006.037-.01.115.03.186.03.05.09.11.322.226.34.168.537.28.983.513.53.272.926.474 1.106.57.21.11.27.134.267.185-.002.048-.057.067-.235.127l-2.34.795zm1.058-3.31c-.556-.12-.657-.142-.776-.16-.126-.018-.19 0-.242.114-.014.02-.03.09-.042.14-.01.04-.02.06-.046.05-.026-.01-.027-.03-.017-.09.02-.1.047-.205.067-.296l.057-.23c.02-.116.18-.845.19-.915 0-.07.01-.13.01-.16 0-.02-.01-.044 0-.06 0-.02.02-.02.04-.017s.06.032.23.08c.03.01.19.053.23.07.02.007.04.02.03.044-.005.024-.024.03-.06.02-.022-.004-.085-.014-.133-.004-.07.01-.12.04-.185.216-.02.06-.11.442-.127.517-.005.02.004.03.03.034l.925.2c.026.005.04.005.046-.017.02-.08.11-.5.12-.587.01-.09.01-.148-.02-.19-.02-.03-.036-.05-.032-.068 0-.018.01-.026.032-.02s.078.03.262.084c.07.02.214.062.24.067.03.007.07.016.062.05-.005.025-.02.03-.04.025-.037-.004-.084-.014-.135-.013-.078 0-.145.04-.19.17-.02.068-.104.43-.123.518-.005.02.01.024.03.03l.29.06c.124.03.46.106.566.124.254.048.32 0 .4-.372.022-.095.055-.25.03-.353-.02-.108-.09-.17-.234-.228-.038-.014-.05-.024-.045-.05.006-.03.034-.023.07-.015.083.016.326.1.395.133.09.045.083.08.05.217-.06.273-.11.473-.144.63-.04.155-.067.27-.092.377-.01.04-.027.12-.04.21-.02.083-.033.18-.05.253-.01.05-.027.07-.053.066-.02-.005-.024-.02-.016-.066.01-.056.013-.1.013-.136 0-.074-.075-.11-.18-.146-.148-.052-.437-.113-.773-.187l-.64-.138zm.694-2.69c-.53-.206-.628-.244-.743-.28-.13-.038-.19-.03-.26.073-.02.024-.05.082-.07.13-.016.04-.03.06-.055.05-.023-.01-.02-.038 0-.09.07-.186.166-.4.194-.475.046-.118.14-.388.18-.496.085-.22.196-.447.4-.585.102-.072.334-.143.57-.052.256.1.45.3.6.763.51-.16.915-.28 1.21-.4.278-.118.357-.252.39-.3.02-.036.04-.066.05-.095.01-.027.025-.037.043-.03.028.012.025.038.01.08l-.128.332c-.077.195-.128.276-.21.35-.14.117-.356.187-.7.278-.246.065-.545.135-.615.16-.025.008-.04.028-.05.052l-.12.302c-.01.018-.006.03.015.04l.05.018c.323.125.6.232.752.27.103.028.19.037.243-.062.026-.05.063-.124.08-.166.01-.028.026-.038.043-.03.024.01.025.037.01.082-.08.202-.19.457-.21.51-.025.065-.1.29-.154.43-.02.043-.04.064-.065.054-.017-.007-.02-.023-.005-.065.024-.054.03-.098.038-.132.012-.07-.058-.12-.15-.17-.14-.07-.42-.18-.74-.302l-.616-.236zm.435-.306c.038.01.056.01.075-.01.053-.07.104-.17.138-.25.054-.14.058-.19.036-.27-.035-.14-.157-.3-.443-.41-.495-.19-.766.08-.846.282-.033.086-.055.15-.058.19-.01.026 0 .04.03.05l1.06.41zm2.203-1.56c-.056.032-.077.04-.15 0-.18-.11-.366-.23-.416-.26-.047-.03-.077-.06-.062-.09.018-.03.048-.02.074 0 .042.02.118.05.183.06.28.063.48-.078.59-.28.163-.29.05-.55-.126-.645-.16-.09-.34-.126-.704.024l-.2.082c-.483.2-.78.192-1.044.043-.355-.205-.443-.648-.186-1.1.12-.214.23-.33.304-.403.022-.023.042-.035.064-.02.04.022.13.09.382.232.07.04.092.064.077.09-.01.023-.036.02-.075 0-.028-.017-.14-.058-.263-.038-.09.014-.24.053-.36.264-.14.24-.08.467.11.577.15.086.308.075.665-.08l.12-.05c.52-.227.825-.24 1.135-.062.19.105.373.304.394.625.01.22-.063.42-.16.59-.11.19-.216.323-.357.428zm-.09-3.09c-.46-.34-.543-.4-.644-.46-.107-.07-.182-.08-.244-.028-.034.027-.065.064-.09.1-.023.03-.043.045-.067.027-.018-.013-.006-.04.03-.09.083-.115.23-.3.295-.387.056-.074.177-.26.26-.374.03-.04.053-.06.07-.046.024.02.018.04-.004.07-.022.03-.037.058-.058.098-.045.094-.012.154.09.237.093.077.178.14.637.474l.532.386c.292.218.53.39.67.47.088.05.157.07.235-.01.037-.035.093-.1.125-.143.024-.034.044-.043.06-.03.022.015.013.045-.012.08-.146.197-.294.382-.354.464-.05.067-.18.266-.27.386-.02.04-.05.054-.07.04-.01-.01-.01-.03.01-.067.04-.047.06-.088.07-.12.03-.068-.01-.125-.09-.197-.11-.11-.35-.28-.65-.495l-.53-.39zm.923-2.52l-.372.41c-.14.164-.19.24-.17.34.02.064.04.11.06.135.017.026.02.044.004.062-.02.02-.04.01-.067-.02-.042-.042-.24-.327-.26-.354-.025-.043-.033-.066-.02-.08.02-.024.075-.025.146-.088.083-.073.186-.17.27-.26L9.9 9.472c.08-.087.13-.154.162-.2.03-.05.046-.076.057-.086.014-.02.033-.004.074.034.057.055.237.24.308.307.025.027.037.05.02.064-.02.02-.037.018-.08-.02l-.033-.02c-.077-.066-.22-.06-.457.173l-.33.335 1.114 1.052c.25.236.464.44.594.536.083.06.16.103.247.03.042-.034.104-.09.142-.13.026-.03.05-.035.06-.022.02.02.007.047-.02.077-.17.18-.34.345-.41.42-.06.06-.215.24-.316.35-.033.037-.06.05-.08.03-.013-.013-.01-.03.02-.063.04-.04.064-.08.082-.11.04-.064-.005-.137-.075-.22-.1-.12-.314-.323-.564-.56L9.292 10.4zm2.84-.46c-.016.01-.017.02-.01.04l.177.545c.03.096.07.18.1.213.04.053.1.07.188-.003l.043-.033c.04-.028.05-.03.07-.013.02.023.007.043-.025.07-.095.073-.23.165-.317.236-.03.025-.186.162-.337.283-.04.03-.06.04-.08.017-.014-.02-.006-.036.018-.055.027-.02.066-.056.087-.077.12-.126.097-.27.04-.46l-.73-2.423c-.033-.11-.04-.16-.013-.18.028-.02.067-.01.15.034.2.104 1.616.924 2.16 1.22.32.174.435.15.51.113.05-.028.096-.06.13-.088.023-.02.04-.027.057-.008.02.022-.006.05-.11.137-.108.086-.32.256-.56.437-.056.04-.09.067-.106.047-.012-.017-.005-.03.02-.06.02-.02.018-.063-.024-.086l-.73-.437c-.015-.01-.03-.01-.043.004l-.657.52zm.48-.62c.013-.017.01-.027 0-.03l-.84-.517c-.012-.01-.027-.02-.036-.015-.01.007-.004.025.002.04l.3.935c.01.015.02.02.03.01l.54-.427zm1.942-.03c-.064.01-.084 0-.126-.07-.11-.18-.21-.38-.24-.433-.025-.05-.037-.09-.01-.105.027-.017.05.01.062.037.023.04.077.1.125.145.212.195.453.17.652.05.29-.17.314-.45.213-.622-.093-.157-.23-.277-.62-.328L14.4 7.94c-.518-.067-.773-.22-.928-.48-.21-.354-.064-.782.383-1.048.21-.125.362-.173.46-.2.032-.01.054-.01.067.013.024.04.066.142.216.393.04.07.045.104.02.118-.02.014-.04 0-.066-.04-.02-.027-.094-.117-.21-.16-.084-.033-.235-.075-.444.05-.237.14-.3.364-.186.56.087.145.23.215.613.26l.13.013c.56.06.832.2 1.014.51.11.184.17.45.025.74-.1.193-.263.33-.433.43-.183.107-.342.17-.516.19zM34.09 6.58l-.49-.27c-.19-.104-.278-.133-.368-.09-.062.028-.1.06-.12.08-.023.02-.04.03-.06.02-.022-.014-.02-.034 0-.07.03-.05.265-.31.286-.332.034-.036.056-.05.075-.038.026.016.04.066.116.12.08.064.2.144.31.205l1.28.75c.1.06.18.09.23.11.05.02.08.028.09.036.02.01.014.033-.015.08-.04.068-.18.286-.23.37-.02.03-.04.046-.06.035-.024-.015-.02-.034.004-.085l.02-.037c.04-.09.006-.23-.276-.404l-.4-.25-.778 1.322c-.174.296-.323.55-.39.7-.043.095-.064.177.024.246.04.03.11.08.157.11.036.02.047.04.037.053-.014.023-.045.02-.08-.003-.213-.12-.41-.25-.5-.304-.074-.044-.283-.154-.413-.23-.04-.02-.06-.048-.043-.07.01-.02.03-.02.067.003.05.03.09.044.123.054.073.024.134-.035.198-.123.097-.125.246-.38.42-.677l.778-1.325zm1.684 2.127c.37-.43.438-.51.51-.6.078-.104.094-.168.018-.27-.018-.02-.062-.07-.104-.1-.03-.028-.043-.048-.026-.068.018-.02.042-.01.084.027.15.13.322.29.407.366.068.06.254.207.356.29.04.04.05.06.04.08-.02.02-.04.01-.07-.01-.03-.027-.05-.04-.09-.063-.09-.053-.16-.022-.25.07-.085.088-.15.167-.52.6l-.34.395c-.355.41-.42.655-.38.89.04.213.16.337.255.42.125.106.312.2.523.183.29-.02.52-.27.77-.563l.31-.357c.37-.432.44-.51.51-.605.08-.1.093-.165.02-.266-.02-.03-.065-.07-.098-.1-.032-.03-.044-.05-.027-.07.017-.02.042-.01.08.027.146.123.316.285.32.29.033.026.22.172.33.267.04.036.055.06.038.08-.016.02-.04.01-.072-.017-.03-.027-.05-.04-.09-.062-.083-.05-.15-.02-.24.07-.083.09-.15.17-.52.6l-.263.303c-.27.316-.59.624-1.002.624-.35 0-.58-.143-.765-.3-.15-.13-.418-.373-.464-.738-.033-.255.04-.558.393-.97l.35-.415zm2.836 2.67c.443-.35.523-.42.613-.5.094-.085.122-.146.064-.26-.013-.027-.05-.08-.083-.12-.025-.03-.034-.054-.014-.07.02-.017.043 0 .078.04.125.156.263.35.312.41.08.1.268.31.34.402.147.184.287.393.307.637.01.126-.045.36-.24.52-.216.174-.486.24-.962.14-.117.52-.215.93-.257 1.25-.038.3.038.436.063.485.03.038.04.065.06.09.02.02.02.04.01.054-.02.02-.042 0-.07-.034l-.223-.275c-.13-.163-.175-.25-.194-.356-.034-.18.014-.4.106-.744.065-.25.155-.54.17-.614.006-.03-.007-.05-.02-.07l-.2-.257c-.01-.016-.023-.02-.04-.005l-.043.034c-.27.22-.5.402-.61.516-.078.077-.128.146-.07.243.03.047.076.116.104.15.02.023.02.042.008.055-.02.015-.046.002-.076-.036-.136-.17-.3-.396-.335-.44-.045-.055-.2-.23-.295-.348-.03-.04-.038-.066-.02-.083.017-.01.034-.005.063.03.034.04.068.07.096.096.057.05.133.01.227-.045.135-.083.364-.27.633-.484l.51-.415zm.046.53c-.032.03-.04.04-.03.07.028.08.09.17.148.246.094.116.136.145.216.167.134.037.336.015.575-.18.414-.332.312-.702.174-.874-.06-.074-.11-.125-.14-.147-.02-.018-.04-.01-.06.005l-.89.71zm1.935 2.205c.49-.29.58-.342.68-.41.11-.07.15-.135.12-.215-.01-.04-.03-.083-.05-.122-.02-.032-.022-.056 0-.07.02-.012.04.01.07.06.07.124.18.332.24.425.047.08.17.268.24.39.023.04.03.07.014.08-.024.017-.042 0-.06-.032-.02-.034-.04-.058-.066-.09-.067-.08-.14-.07-.254-.014-.108.054-.198.108-.69.396l-.565.335c-.314.185-.57.335-.7.43-.08.06-.127.118-.083.222.02.05.056.12.084.17.02.03.02.054.006.062-.022.012-.047-.01-.068-.044-.126-.21-.235-.42-.288-.506-.046-.073-.176-.27-.25-.4-.026-.04-.03-.07-.008-.082.017-.01.033 0 .057.04.03.05.06.08.08.11.05.054.116.04.216-.005.146-.063.4-.214.713-.397l.562-.336zm-.27 2.38c.16-.46.51-.71.84-.85.24-.098.67-.193 1.118.013.33.152.605.423.818.94.09.212.13.346.176.513.037.14.053.263.085.37.01.04 0 .06-.02.07-.03.01-.074.02-.2.06-.115.042-.305.124-.38.145-.05.02-.082.02-.095-.01-.01-.03.012-.046.06-.065.105-.047.21-.143.263-.266.07-.164.054-.472-.078-.79-.124-.3-.28-.466-.482-.56-.334-.157-.69-.087-1.024.052-.824.34-.974 1.132-.78 1.595.125.31.24.48.453.555.09.03.21.034.278.022.06-.013.078-.01.09.016.01.024-.01.043-.04.054-.04.017-.36.1-.49.114-.065.007-.09 0-.136-.05-.114-.114-.247-.37-.34-.59-.195-.473-.256-.914-.113-1.34zm2.46 2.802c.56-.125.66-.146.77-.18.127-.036.18-.078.178-.205 0-.03-.01-.094-.02-.145-.01-.04-.007-.066.02-.07.025-.007.04.02.05.072l.063.297c.02.094.033.18.044.23.026.115.19.842.208.91.025.066.045.123.06.15.008.017.023.036.027.055s-.01.024-.03.03c-.025.003-.073-.005-.244.02-.037.006-.2.034-.244.037-.02 0-.042-.002-.05-.026-.004-.024.01-.036.045-.043.026-.005.088-.023.127-.052.06-.04.098-.083.08-.27-.005-.062-.084-.45-.1-.52-.006-.02-.02-.022-.044-.02l-.922.21c-.026.007-.04.014-.035.035.02.08.11.5.14.584.025.084.05.136.093.16.036.02.057.03.06.048.005.014 0 .025-.02.03-.022.004-.083 0-.273.03-.073.013-.22.034-.25.04-.025.006-.065.017-.074-.02-.008-.022.006-.033.023-.04.036-.01.083-.02.128-.04.07-.037.113-.1.097-.238-.008-.07-.086-.432-.104-.52-.006-.02-.02-.02-.044-.014l-.29.065c-.124.03-.46.1-.566.127-.25.06-.29.133-.205.506.02.095.055.248.12.333.064.085.15.11.31.104.04 0 .055 0 .06.025.005.03-.023.035-.06.043-.085.02-.34.046-.417.044-.1-.004-.11-.037-.14-.176-.06-.272-.1-.476-.13-.634-.03-.16-.05-.273-.076-.383-.01-.04-.027-.12-.05-.206-.02-.084-.048-.177-.064-.25-.013-.047-.007-.075.02-.08.02-.005.032.007.04.05.013.056.03.098.045.13.03.068.115.07.226.06.158-.016.447-.08.78-.155l.64-.142zm-.684 3.192c-.292.014-.387.07-.41.142-.02.063-.02.136-.02.194 0 .04-.005.063-.027.063-.03 0-.04-.03-.04-.08-.01-.245-.004-.396-.006-.467 0-.032-.02-.21-.023-.4 0-.048 0-.083.034-.083.023 0 .03.02.033.06 0 .05.006.115.022.166.032.098.14.108.466.1l2.213-.042c.076 0 .13.01.13.046 0 .04-.046.07-.11.14-.048.044-.637.634-1.16 1.2-.244.262-.766.79-.82.85v.02l1.675-.097c.23-.013.297-.05.33-.14.02-.057.02-.146.017-.2 0-.045.01-.06.03-.06.03-.002.038.04.04.094.008.193.003.374.006.45 0 .04.02.18.025.366 0 .05 0 .086-.03.087-.02 0-.034-.02-.036-.066 0-.04-.003-.065-.016-.11-.03-.103-.11-.13-.32-.126l-2.36.04c-.08.005-.115-.01-.117-.042 0-.04.04-.09.08-.13.215-.243.69-.74 1.06-1.142.39-.42.84-.853.91-.923v-.01l-1.57.094zm-.502 3.45c.036-.06.057-.067.138-.057.204.03.425.075.48.09.057.01.096.026.09.057-.002.036-.036.034-.065.03-.05-.007-.13-.002-.194.007-.285.042-.416.246-.45.476-.047.334.155.53.353.56.182.026.36-.005.645-.276l.16-.15c.377-.36.656-.466.956-.423.407.06.65.44.577.96-.035.24-.095.395-.135.486-.01.03-.024.05-.05.046-.05-.005-.153-.035-.44-.076-.084-.012-.11-.027-.107-.057.005-.027.028-.035.073-.028.03.005.147 0 .256-.06.08-.046.205-.137.24-.378.04-.272-.098-.463-.32-.495-.17-.024-.31.04-.588.315l-.096.094c-.4.397-.68.52-1.03.47-.217-.03-.46-.15-.596-.44-.09-.204-.098-.416-.068-.61.028-.22.078-.38.17-.53zm1.12 3.17c.548.156.65.185.767.21.126.028.196.01.236-.064.02-.036.04-.082.05-.125.01-.034.022-.054.052-.046.02.008.02.038.004.096-.04.136-.112.36-.143.464-.025.09-.074.306-.113.44-.013.048-.027.075-.05.07-.03-.007-.03-.03-.02-.066s.015-.064.02-.11c.01-.103-.044-.147-.17-.19-.11-.04-.21-.068-.76-.223l-.63-.18c-.35-.1-.634-.18-.793-.21-.1-.013-.172-.01-.217.1-.02.05-.05.124-.067.18-.01.04-.025.053-.044.05-.03-.01-.03-.04-.02-.08.066-.237.14-.46.17-.56.02-.08.076-.31.117-.456.013-.047.03-.068.056-.062.02.006.025.023.013.067-.017.05-.02.1-.02.13-.008.075.047.114.147.154.146.06.43.14.78.24l.632.178zm-2.202 1.32c.05-.045.07-.05.147-.015.187.08.39.187.44.21.05.028.083.056.072.08-.013.033-.046.023-.073.01-.044-.02-.123-.034-.188-.043-.287-.03-.467.13-.56.344-.134.31.01.55.192.63.167.07.347.09.693-.1l.19-.103c.46-.25.755-.273 1.033-.152.377.164.512.597.306 1.073-.098.224-.193.353-.257.43-.02.03-.04.04-.063.03-.043-.02-.14-.074-.405-.19-.075-.03-.1-.055-.086-.08.01-.02.034-.025.076-.008.03.015.145.044.265.01.09-.02.234-.08.33-.3.11-.254.03-.473-.176-.56-.16-.07-.31-.043-.65.147l-.114.062c-.49.28-.79.323-1.12.183-.197-.086-.4-.264-.456-.58-.037-.22.016-.425.094-.606.086-.194.177-.34.306-.46zM13.8 41.77c-.025 0-.057 0-.115-.02-.055-.012-.07-.055-.09-.183l-.19-1.25c-.01-.05-.035-.078-.065-.08-.03 0-.052.024-.07.06l-.547 1.112-.546-1.1c-.023-.058-.05-.075-.08-.075-.026 0-.05.03-.054.066l-.208 1.32c-.01.07-.034.143-.07.144-.035.003-.05.003-.065.003-.025 0-.05.012-.05.037 0 .033.033.04.055.04.07 0 .17-.007.21-.007.035 0 .13.01.22.01.03 0 .064-.003.066-.04 0-.025-.023-.034-.05-.035-.015 0-.032 0-.07-.008-.032-.01-.05-.017-.05-.044 0-.03 0-.055.01-.09l.094-.747.19.396c.022.06.19.37.24.46.033.062.053.106.1.112.04-.005.05-.03.1-.125l.43-.867.11.83v.07c-.015.004-.033.013-.035.035.003.03.03.04.08.04.082.007.38.017.434.017.03 0 .064-.004.07-.04-.01-.028-.035-.036-.056-.036zm1.708-1.25c-.233-.236-.592-.234-.853-.234-.128 0-.28.004-.34.004h-.306c-.03 0-.065 0-.067.034 0 .03.03.04.053.04.03 0 .067.003.08.007.063.02.07.03.078.097.006.065.006.12.006.43v.356c0 .186 0 .344-.01.43-.01.06-.02.084-.05.09-.017.004-.04.006-.07.006-.03 0-.05.02-.05.04 0 .026.03.036.06.036.043 0 .096 0 .146-.004.05 0 .097-.004.12-.004.05 0 .126.006.21.013.08.004.174.01.25.01.39 0 .616-.146.715-.244.124-.12.236-.315.236-.576 0-.25-.097-.42-.204-.53zm-.13.585c0 .207-.043.382-.173.488-.125.103-.26.135-.448.135-.16 0-.24-.048-.26-.077-.01-.01-.02-.083-.02-.13-.003-.04-.006-.196-.006-.41v-.255c0-.16 0-.327.005-.397 0-.02 0-.02.015-.025.01-.005.08-.013.122-.012.163 0 .386.02.574.19.09.08.19.245.19.497zm1.982.33c-.027-.002-.04.024-.04.054-.007.03-.035.09-.07.124-.077.087-.172.102-.357.102-.27 0-.634-.227-.635-.69 0-.2.04-.39.19-.52.09-.077.202-.11.383-.11.19 0 .33.05.396.114.05.05.075.117.077.178 0 .024.005.06.04.06.036 0 .04-.037.045-.064.003-.044.003-.156.008-.22.004-.07.01-.097.01-.115 0-.02-.02-.04-.047-.04-.06-.01-.13-.02-.208-.035-.096-.01-.176-.02-.31-.02-.31 0-.52.082-.673.22-.205.183-.25.425-.25.565 0 .2.055.436.27.61.192.165.44.225.73.225.134 0 .293-.01.382-.047.036-.013.056-.033.064-.07.02-.07.045-.244.045-.27-.004-.03-.01-.058-.044-.06zm1.68 0c-.03-.002-.042.024-.044.054-.004.03-.033.09-.066.124-.08.087-.173.102-.36.102-.27 0-.634-.227-.635-.69 0-.2.037-.39.187-.52.09-.077.202-.11.383-.11.19 0 .328.05.395.114.05.05.073.117.076.178 0 .024.007.06.04.06.037 0 .043-.037.045-.064 0-.044 0-.156.008-.22.006-.07.01-.097.01-.115 0-.02-.02-.04-.045-.04-.06-.01-.13-.02-.206-.035-.098-.01-.178-.02-.31-.02-.314 0-.52.082-.676.22-.204.183-.25.425-.25.565 0 .2.056.436.27.61.194.165.44.225.73.225.136 0 .296-.01.384-.047.038-.013.06-.033.065-.07.02-.07.044-.244.045-.27 0-.03-.01-.058-.04-.06zm1.677 0c-.026-.002-.04.024-.042.054-.006.03-.034.09-.066.124-.08.087-.176.102-.36.102-.27 0-.636-.227-.636-.69 0-.2.037-.39.187-.52.095-.077.206-.11.388-.11.19 0 .325.05.392.114.05.05.073.117.075.178 0 .024.004.06.04.06.035 0 .04-.037.043-.064.003-.044.003-.156.008-.22.004-.07.01-.097.01-.115 0-.02-.02-.04-.048-.04-.06-.01-.13-.02-.21-.035-.094-.01-.174-.02-.306-.02-.312 0-.52.082-.675.22-.208.183-.25.425-.25.565 0 .2.053.436.265.61.195.165.44.225.73.225.138 0 .297-.01.386-.047.038-.013.06-.033.066-.07.023-.07.046-.244.047-.27 0-.03-.01-.058-.04-.06zm8.097.338c-.02 0-.05-.002-.076-.01-.043-.016-.072-.033-.106-.076-.048-.06-.378-.58-.458-.704l.34-.465c.063-.09.103-.14.14-.15.028-.01.054-.01.07-.01.027 0 .05-.017.053-.04-.004-.03-.034-.038-.058-.038-.08 0-.17.005-.208.005-.04 0-.138-.005-.22-.005-.03 0-.06.005-.062.036 0 .03.026.04.044.04s.045 0 .06.005c.02.007.027.018.027.02 0 .015-.004.04-.02.066-.03.053-.193.293-.266.4l-.25-.42c-.01-.02-.02-.046-.02-.05 0-.003 0-.01.017-.014s.038-.004.048-.004c.02 0 .05-.01.05-.04-.004-.03-.035-.035-.06-.035-.08 0-.21.006-.238.006-.1 0-.27-.006-.32-.006-.025 0-.056 0-.06.035 0 .02.015.04.04.04.016 0 .05.002.08.012.07.02.106.06.16.14l.36.564-.4.545c-.07.1-.1.126-.158.143-.03.005-.06.01-.073.01-.027 0-.048.015-.048.04s.023.034.047.034h.035c.036 0 .14-.006.178-.006.054 0 .19.007.205.007h.036c.027 0 .058-.003.06-.035-.002-.026-.02-.04-.043-.04l-.045-.004c-.012 0-.02-.01-.02-.018v-.004c0-.016.01-.043.027-.07l.294-.454.314.52c.003.006.004.01.004.013 0 .005-.002.005-.002.005-.02.005-.04.02-.04.043.006.036.038.034.09.038.17.005.34.005.39.005h.06c.026 0 .057-.01.06-.04 0-.025-.023-.04-.044-.04zm1.778 0c-.017 0-.05-.002-.075-.01-.044-.016-.07-.033-.106-.076-.05-.06-.38-.58-.46-.704l.34-.465c.067-.09.107-.14.14-.15.03-.01.057-.01.07-.01.03 0 .05-.017.05-.04 0-.03-.03-.038-.05-.038-.08 0-.166.005-.206.005s-.14-.005-.22-.005c-.03 0-.06.005-.06.036 0 .03.025.04.04.04s.044 0 .06.005c.02.007.026.018.025.02 0 .015-.006.04-.02.066-.033.053-.196.293-.27.4-.078-.134-.16-.267-.247-.42-.012-.02-.02-.046-.02-.05 0-.003 0-.01.016-.014s.035-.004.046-.004c.02 0 .05-.01.05-.04s-.03-.035-.06-.035c-.08 0-.21.006-.232.006-.1 0-.27-.006-.32-.006-.023 0-.053 0-.06.035 0 .02.02.04.04.04s.052.002.082.012c.07.02.107.06.16.14l.36.564-.402.545c-.07.1-.1.126-.157.143-.03.005-.06.01-.07.01-.03 0-.05.015-.05.04s.023.034.048.034h.035c.036 0 .14-.006.177-.006.05 0 .19.007.203.007h.04c.028 0 .06-.003.06-.035 0-.026-.02-.04-.04-.04l-.046-.004c-.013 0-.022-.008-.023-.018v-.004c0-.016.01-.043.03-.07l.29-.454.318.52c.004.006.005.01.005.013v.005c-.02.005-.04.02-.04.043.005.036.037.034.09.038.17.005.337.005.39.005h.06c.024 0 .055-.01.06-.04-.005-.025-.026-.04-.048-.04zm1.78 0c-.02 0-.05-.002-.077-.01-.042-.016-.07-.033-.105-.076-.05-.06-.38-.58-.46-.704l.343-.465c.063-.09.104-.14.14-.15.03-.01.054-.01.073-.01.023 0 .05-.017.05-.04-.003-.03-.033-.038-.056-.038-.08 0-.167.005-.206.005-.04 0-.14-.005-.22-.005-.027 0-.06.005-.06.036 0 .03.024.04.042.04.014 0 .042 0 .06.005.02.007.024.018.023.02 0 .015-.01.04-.02.066l-.27.4-.25-.42c-.01-.02-.02-.046-.02-.05 0-.003 0-.01.015-.014l.047-.004c.02 0 .05-.01.05-.04-.002-.03-.032-.035-.06-.035-.08 0-.208.006-.236.006-.1 0-.267-.006-.316-.006-.024 0-.055 0-.06.035 0 .02.02.04.04.04s.052.002.083.012c.07.02.107.06.16.14l.362.564-.4.545c-.073.1-.1.126-.158.143-.03.005-.06.01-.073.01-.022 0-.044.015-.044.04s.024.034.047.034h.036c.034 0 .137-.006.176-.006.05 0 .19.007.2.007h.04c.024 0 .06-.003.06-.035 0-.026-.02-.04-.045-.04l-.045-.004c-.013 0-.022-.008-.023-.018v-.004c0-.016.01-.043.027-.07l.294-.454.316.52.007.013c0 .004-.002.005-.002.005-.02.005-.04.02-.04.043.004.036.035.033.09.038.17.005.34.005.39.005h.06c.024 0 .055-.01.06-.04 0-.025-.024-.04-.045-.04zm1.093 0c-.03 0-.077-.002-.103-.007-.058-.012-.062-.026-.07-.08-.01-.084-.01-.246-.01-.44v-.356c0-.31 0-.36.005-.43.007-.065.015-.08.063-.09.025-.006.04-.01.06-.01s.05-.01.05-.04c-.003-.033-.033-.033-.06-.034-.08 0-.217.005-.27.005l-.28-.003c-.03 0-.062 0-.066.034 0 .03.03.04.05.04.025 0 .05 0 .07.01.04.014.054.024.06.09.003.064.003.12.003.43v.356c0 .194 0 .356-.01.438-.01.06-.015.075-.05.085-.017.003-.04.005-.07.005-.03 0-.05.02-.05.04 0 .03.03.04.058.04.085 0 .23-.008.274-.008.053 0 .2.01.335.01.026 0 .056-.006.06-.036 0-.02-.02-.04-.05-.04zm1.27 0c-.03 0-.076-.002-.102-.007-.055-.012-.06-.026-.07-.08-.01-.084-.01-.246-.01-.44v-.356c0-.31 0-.36.007-.43.008-.065.015-.08.064-.09.024-.006.04-.01.06-.01.02 0 .05-.01.05-.04-.005-.033-.033-.033-.06-.034-.082 0-.22.005-.27.005l-.28-.003c-.03 0-.06 0-.066.034 0 .03.03.04.05.04.027 0 .053 0 .073.01.04.014.05.024.06.09.005.064.005.12.005.43v.356c0 .194 0 .356-.01.438-.01.06-.018.075-.05.085-.02.003-.04.005-.07.005-.03 0-.05.02-.05.04 0 .03.03.04.056.04.084 0 .227-.008.273-.008.056 0 .2.01.337.01.024 0 .055-.006.06-.036 0-.02-.02-.04-.05-.04zm1.273 0c-.03 0-.078-.002-.105-.007-.055-.012-.06-.026-.067-.08-.01-.084-.01-.246-.01-.44v-.356c0-.31 0-.36.004-.43.008-.065.015-.08.064-.09.025-.006.04-.01.06-.01s.05-.01.05-.04c-.004-.033-.034-.033-.06-.034-.08 0-.217.005-.27.005l-.28-.003c-.03 0-.062 0-.066.034 0 .03.028.04.05.04.025 0 .05 0 .07.01.04.014.054.024.06.09v.786c0 .194 0 .356-.01.438-.005.06-.01.075-.045.085-.02.003-.04.005-.07.005-.03 0-.05.02-.05.04 0 .03.03.04.057.04.085 0 .23-.008.275-.008.056 0 .2.01.338.01.024 0 .055-.006.057-.036 0-.022-.02-.04-.05-.04zm-12.59-9.8v-1.187c0-.222-.18-.402-.4-.402-.224 0-.404.182-.404.402v1.188h.803zm2.177 0v-1.187c0-.222-.18-.402-.4-.402-.226 0-.405.182-.405.402v1.188h.803zM24.1 8.077c-.234 0-.424.19-.424.422 0 .23.19.42.422.42.233 0 .423-.19.423-.42 0-.24-.19-.43-.42-.43zm-.215 11.777h.425v-.915h-.426v.91zM19.84 42.94c-.232 0-.422.19-.422.423s.19.422.422.422c.233 0 .423-.188.423-.422s-.19-.422-.423-.422zm-.256-23.07v-1.346c-.003-.315-.158-.533-.39-.635-.23.1-.386.31-.39.63v1.34h.78zm0-4.322v-.868c-.003-.315-.158-.534-.39-.637-.23.104-.386.32-.39.637v.867h.78zm-.182 8.99v-1.126c0-.116-.093-.21-.21-.21s-.208.094-.208.21v1.127h.418zm0 3.393v-1.12c0-.11-.093-.21-.21-.21s-.208.1-.208.21v1.13h.418zm.123 3.79v-1c0-.18-.15-.33-.338-.33-.188 0-.338.15-.338.34v1h.67zm-.33-28.31c-.234 0-.423.19-.423.42 0 .24.188.43.422.43.232 0 .422-.19.422-.42 0-.232-.19-.42-.422-.42zm10.18 16.46v-1.34c-.002-.31-.158-.53-.39-.63-.23.1-.386.32-.388.635v1.344h.778zm0-4.32v-.87c-.002-.31-.158-.53-.39-.63-.23.106-.386.32-.388.64v.867h.778zm-.18 8.99v-1.12c0-.114-.095-.21-.21-.21s-.21.096-.21.21v1.13h.42zm0 3.4v-1.13c0-.116-.095-.21-.21-.21s-.21.094-.21.21v1.126h.42zm.122 3.79v-1c0-.187-.15-.34-.338-.34-.19 0-.34.15-.34.34v1h.67zm-.332-28.31c-.233 0-.422.188-.422.42 0 .234.188.423.422.423.232 0 .422-.19.422-.422 0-.23-.188-.42-.422-.42zM60.11 21.36c-3.84 0-4.704-2.09-4.704-4.415V8.998h2.342V16.8c0 1.533.505 2.614 2.523 2.614 1.81 0 2.56-.757 2.56-2.83V9h2.33v7.442c0 3.334-1.84 4.92-5.042 4.92zm13.045-.198v-5.73c0-.937-.253-1.495-1.1-1.495-1.172 0-2.09 1.334-2.09 2.9v4.326h-2.308v-8.956h2.18c0 .415-.034 1.117-.125 1.586l.02.02c.54-1.064 1.585-1.804 3.045-1.804 2.018 0 2.666 1.29 2.666 2.86v6.29h-2.288zm5.947-10.11c-.793 0-1.424-.63-1.424-1.405 0-.757.63-1.39 1.424-1.39s1.44.614 1.44 1.39c0 .775-.647 1.405-1.44 1.405zm-1.154 10.11v-8.956h2.307v8.956h-2.307zm9.263 0h-2.34l-3.31-8.956h2.52l1.43 4.036c.215.613.433 1.334.595 1.982h.035c.145-.612.324-1.298.54-1.91l1.44-4.108h2.452l-3.35 8.956zm11.59-4.108h-5.55c-.02 1.676.81 2.485 2.47 2.485.89 0 1.84-.2 2.618-.56l.216 1.78c-.955.38-2.09.57-3.207.57-2.85 0-4.433-1.423-4.433-4.576 0-2.74 1.512-4.758 4.196-4.758 2.61 0 3.766 1.783 3.766 4 0 .307-.02.67-.072 1.047zm-3.76-3.352c-.954 0-1.62.703-1.747 1.784h3.298c.038-1.118-.574-1.784-1.55-1.784zm10.56.576c-1.656-.343-2.484.74-2.484 3.226v3.658h-2.31v-8.956h2.18c0 .45-.052 1.17-.16 1.802h.037c.433-1.135 1.298-2.126 2.848-2l-.11 2.27zm3.154 7.064c-.647 0-1.3-.07-1.874-.16l.053-1.894c.56.145 1.24.27 1.93.27.88 0 1.456-.36 1.456-.955 0-1.585-3.62-.686-3.62-3.73 0-1.567 1.275-2.865 3.8-2.865.52 0 1.1.072 1.64.162l-.07 1.82c-.506-.146-1.1-.234-1.66-.234-.9 0-1.334.36-1.334.92 0 1.46 3.676.81 3.676 3.712 0 1.765-1.55 2.954-4.002 2.954zm7.118-10.29c-.79 0-1.422-.63-1.422-1.405 0-.757.63-1.39 1.423-1.39s1.44.614 1.44 1.39c.003.775-.645 1.405-1.44 1.405zm-1.15 10.11v-8.956h2.307v8.956h-2.308zm8.142.18c-1.98 0-2.612-.72-2.612-2.81V13.99h-1.53v-1.784h1.53V9.45l2.308-.614v3.37h2.182v1.784h-2.182v3.928c0 1.153.27 1.48 1.063 1.48.38 0 .794-.056 1.118-.146v1.856c-.577.144-1.243.234-1.873.234zm8.88-.18c0-.52.02-1.045.09-1.514l-.02-.02c-.432 1.01-1.53 1.713-2.863 1.713-1.62 0-2.56-.91-2.56-2.36 0-2.14 2.127-3.27 5.173-3.27v-.486c0-.937-.45-1.423-1.748-1.423-.81 0-1.89.27-2.65.703l-.194-1.93c.9-.325 2.056-.56 3.208-.56 2.885 0 3.695 1.17 3.695 3.117v3.73c0 .72.02 1.565.055 2.305h-2.18zm-3.17-10.433c-.686 0-1.242-.56-1.242-1.25 0-.707.56-1.248 1.244-1.248.686 0 1.244.54 1.244 1.244 0 .684-.56 1.244-1.243 1.244zm2.99 6.46c-2.432 0-2.973.702-2.973 1.422 0 .577.397.955 1.064.955 1.134 0 1.91-1.08 1.91-2.16v-.217zm.65-6.47c-.686 0-1.244-.56-1.244-1.244 0-.703.56-1.244 1.243-1.244s1.244.54 1.244 1.244c0 .686-.56 1.246-1.24 1.246zm7.35 10.613c-1.98 0-2.613-.72-2.613-2.81v-4.54h-1.53V12.2h1.53V9.45l2.308-.614v3.37h2.18v1.784h-2.18v3.928c0 1.153.27 1.48 1.063 1.48.38 0 .795-.056 1.118-.146v1.856c-.577.144-1.243.234-1.874.234zm-84.6 18.86v-1.8l4.38-7.137c.25-.414.503-.774.792-1.153-.432.02-1.01.036-2.216.036H55.1V28.03h7.855v1.874l-4.63 7.315c-.18.29-.343.56-.56.85.307-.037 1.136-.037 2.632-.037h2.63V40.2h-8.072zm15.53 0c0-.413.017-1.116.106-1.585l-.017-.018c-.54 1.062-1.567 1.802-3.045 1.802-2.02 0-2.667-1.3-2.667-2.868v-6.29h2.29v5.73c0 .937.253 1.496 1.118 1.496 1.17 0 2.07-1.334 2.07-2.9v-4.32h2.31v8.96H70.49zm-3.66-10.432c-.684 0-1.24-.56-1.24-1.244 0-.7.56-1.243 1.24-1.243s1.24.54 1.24 1.243c0 .687-.56 1.246-1.244 1.246zm3.64 0c-.684 0-1.24-.56-1.24-1.244 0-.7.56-1.243 1.24-1.243.68 0 1.24.54 1.24 1.243 0 .687-.56 1.246-1.245 1.246zm9.46 3.55c-1.655-.343-2.484.74-2.484 3.226v3.66h-2.31V31.24h2.18c0 .45-.06 1.17-.166 1.803h.036c.43-1.135 1.295-2.126 2.845-2l-.11 2.27zm2.93-3.225c-.794 0-1.425-.63-1.425-1.403 0-.756.63-1.388 1.423-1.388s1.44.61 1.44 1.386c0 .776-.65 1.407-1.44 1.407zm-1.16 10.12V31.25h2.307v8.955H81.7zm8.03.16c-2.487 0-4.037-1.297-4.037-4.343 0-2.79 1.46-4.936 4.632-4.936.61 0 1.26.09 1.837.252l-.233 2c-.486-.18-1.046-.33-1.622-.33-1.46 0-2.198 1.083-2.198 2.777 0 1.53.595 2.58 2.126 2.58.612 0 1.28-.13 1.767-.38l.18 1.964c-.616.236-1.5.415-2.454.415zm9.748-.16v-5.73c0-.94-.252-1.497-1.1-1.497-1.172 0-2.09 1.33-2.09 2.9v4.32h-2.31V27.046h2.307v3.84c0 .54-.037 1.297-.163 1.82l.036.018c.53-1.01 1.55-1.677 2.94-1.677 2.02 0 2.67 1.3 2.67 2.865v6.29h-2.29zm5.856-8.488c-1.46 0-1.813-.79-1.813-1.707v-2.97h1.07v2.91c0 .54.17.88.82.88.6 0 .83-.253.83-.94v-2.85h1.047v2.79c0 1.29-.728 1.89-1.946 1.89zm2.83-.09v-.83l1.476-2.47c.073-.12.155-.236.243-.352-.12.007-.277.014-.72.014h-.952v-.95h2.98v.862l-1.56 2.504c-.054.09-.106.163-.176.26.09-.016.346-.016.89-.016h.87v.98h-3.046zm6.758 0v-1.91h-1.68v1.91h-1.06v-4.59h1.06v1.76h1.68v-1.76h1.062v4.59h-1.062zM0 24.09C0 10.787 10.786 0 24.09 0c13.307 0 24.093 10.786 24.093 24.09 0 13.307-10.786 24.093-24.092 24.093C10.79 48.183 0 37.396 0 24.09zM7.477 7.478C3.225 11.73.595 17.602.595 24.09c0 6.49 2.63 12.362 6.882 16.615 4.253 4.252 10.125 6.88 16.613 6.88 6.49 0 12.36-2.628 16.614-6.88 4.252-4.253 6.882-10.125 6.882-16.614 0-6.48-2.63-12.36-6.882-16.61S30.58.6 24.09.6C17.602.6 11.73 3.23 7.477 7.483zm16.98 31.755h.193v-.34h-.462v.753h.27l-.002-.413zM24.09 1.568c-12.435 0-22.515 10.08-22.515 22.516 0 12.437 10.08 22.518 22.516 22.518 12.44 0 22.52-10.08 22.52-22.518 0-12.434-10.08-22.516-22.52-22.516zM21.6 43.19h-1.02v.34h1.02v2.53c-5.112-.573-9.696-2.89-13.146-6.338-.495-.495-.967-1.015-1.414-1.555.09-.55.565-.967 1.14-.967.64 0 1.156.518 1.156 1.156v1.11h1.468v-1.112c0-.64.52-1.156 1.156-1.156.64 0 1.157.517 1.157 1.155v1.11h1.468v-1.11c0-.64.52-1.157 1.156-1.157s1.16.518 1.16 1.156v1.11h1.47v-1.11c0-.64.52-1.157 1.16-1.157.64 0 1.156.518 1.156 1.156v1.11h.92v3.73zm4.196 2.945c-.562.044-1.13.065-1.703.065-.57 0-1.14-.02-1.7-.063l-.417-2.606h.48c-.12-.28-.328-.78-.408-.98-.13-.325-.032-.54.185-.625.21-.082.45.034.523.31l.21.79h.31v.616h-.73v.34h1.067v-.44h1.294v-.51h.31l.212-.793c.07-.276.31-.394.52-.31.22.084.314.3.185.626-.035.09-.093.235-.154.396l-.29.695h-.776v.34h1.005l.184-.44h.102l-.42 2.6zm-2.403-7.45h1.4c.056.128.19.453.272.642.057.13.13.27.04.416-.105.17-.244.146-.34.14-.007-.002-.013 0-.02-.002-.097.27-.35.46-.652.46-.3 0-.555-.19-.652-.46 0 .01-.01 0-.01.01-.1.01-.234.03-.34-.14-.09-.143-.016-.283.04-.414.086-.19.22-.515.273-.643zm-.21-1.455l.447.64.458-.868.458.87.448-.642-.177 1.11H23.36l-.176-1.11zm.535 3.146c.105.293.385.504.715.504.356 0 .654-.247.736-.58.22.012.44.075.66.26.21.178.29.48.32.633h-4.12c.03-.15.11-.455.32-.632.45-.38.91-.25 1.358-.18zm1.7 1.156c-.156.586-.69 1.02-1.323 1.02-.634 0-1.167-.434-1.32-1.02h2.642zm14.314-1.81c-3.45 3.45-8.034 5.765-13.146 6.338v-2.53h.935c1.73 0 2.99-.146 2.99-.146s-1.29-.194-2.982-.194h-.935v-3.72h1.11v-1.112c0-.64.52-1.156 1.16-1.156s1.156.52 1.156 1.156v1.11h1.466v-1.11c0-.64.518-1.156 1.156-1.156.638 0 1.155.52 1.155 1.157v1.11h1.47v-1.12c0-.64.517-1.157 1.155-1.157.64 0 1.155.52 1.155 1.156v1.11h1.468v-1.11c0-.64.52-1.157 1.157-1.157.5 0 .93.325 1.09.78-.49.61-1.01 1.19-1.56 1.743zm1.81-2.05c-.256-.54-.807-.915-1.444-.915-.885 0-1.602.718-1.602 1.603v.517h-.58v-.517c0-.885-.716-1.603-1.6-1.603s-1.602.718-1.602 1.603v.517h-.58v-.517c0-.885-.717-1.603-1.6-1.603s-1.602.718-1.602 1.603v.517h-.58v-.517c0-.885-.718-1.603-1.602-1.603s-1.6.718-1.6 1.603v.517h-.6c-.18-1.198-1.212-2.118-2.46-2.118s-2.28.92-2.463 2.11h-.614v-.52c0-.885-.717-1.603-1.6-1.603s-1.602.72-1.602 1.603v.517h-.58v-.517c0-.886-.71-1.604-1.6-1.604-.88 0-1.6.72-1.6 1.603v.514h-.58v-.517c0-.886-.72-1.604-1.6-1.604-.88 0-1.6.717-1.6 1.602v.516h-.57v-.52c0-.887-.714-1.605-1.6-1.605-.632 0-1.18.37-1.44.903-.39-.5-.76-1.02-1.102-1.556h37.13c-.35.54-.72 1.062-1.115 1.567zm1.487-2.157H5.15c-.11-.183-.217-.366-.322-.553h38.52c-.107.186-.213.37-.323.553zM20.27 7.09v.186c-.005.037-.015.092-.034.144-.03.085-.11.22-.216.386-.04.064-.11.174-.188.33-.1-.154-.186-.256-.246-.32-.064-.07-.152-.16-.226-.245-.157-.18-.166-.29-.166-.29s-.005.11-.163.3c-.07.085-.16.175-.223.246-.062.063-.147.167-.25.325-.08-.16-.15-.27-.192-.34-.104-.165-.184-.3-.216-.385-.03-.08-.04-.176-.043-.186V7.1h2.17zm-2.166-.34c.015-.278.09-.806.36-1.165.204-.278.407-.443.557-.54.07-.045.128-.072.167-.09.04.02.094.045.163.09.145.097.35.262.555.54.272.36.346.887.363 1.164h-2.16zm2.243 1.238c.062.085.125.21.194.36.1.232.12.46.13.63v2.49h-.64V8.98c0-.17.03-.41.12-.632.08-.176.142-.276.2-.358zm-.67 1.006v2.476H18.7V8.992c.008-.162.02-.386.138-.617.123-.242.355-.386.355-.386s.22.14.343.38c.122.24.133.45.14.62zm-1.438-.65c.09.223.1.464.11.635v2.49h-.637v-2.5c.005-.17.02-.4.118-.63.07-.15.138-.278.195-.36.072.102.14.204.21.354zm2.92 3.533v.807h-3.94v-.807h3.94zm0 1.145v3.14h-.96V14.75c0-.47-.175-.866-.46-1.138-.154-.147-.34-.258-.54-.328-.016-.004-.015-.005-.015-.005h-.016c-.206.07-.39.18-.545.33-.286.27-.46.67-.46 1.14v1.41h-.956v-3.14h3.94zm-1.29 1.728v1.414h-1.35V14.75c0-.546.27-.925.67-1.103.4.177.67.556.676 1.103zm1.29 1.753v3.995h-.876v-1.995c0-.468-.176-.875-.47-1.155-.157-.15-.344-.263-.55-.333-.01-.005-.074-.024-.074-.024l-.066.03c-.207.07-.396.187-.555.337-.295.28-.47.688-.47 1.154v1.99h-.88v-3.995h3.94zm-1.216 2.003v1.992H18.44v-1.995c0-.384.142-.694.365-.91.11-.104.24-.184.39-.24.147.058.276.136.387.24.226.215.364.525.365.91v.003zm1.216 2.332v4.755h-3.94v-4.755h3.94zm0 5.095v3.103h-3.94v-3.103h3.94zm0 3.442v5.247h-3.94v-5.247h3.94zm3.47-12.837v1.416l-.54-.542-.54.54V16.54h1.082zm-1.067-.408l.396-1.694.162-2.835.098 2.84.397 1.7h-1.06zm.526 1.858l2.51 2.51h-5.02l2.51-2.51zm2.51 2.85v1.92h-5.037v-1.92H26.6zm0 2.516v2.238h-1.57v-.56c0-.517-.42-.94-.94-.94-.517 0-.937.422-.937.94v.56h-1.59v-2.238h5.04zm-3.448 2.58v1.997h1.873v-1.99H26.6v3.106h-5.036V25.94h1.59zm3.448 3.44v5.248h-5.036v-5.247H26.6zM30.068 7.09v.186c-.005.038-.017.093-.035.145-.032.09-.11.22-.217.39-.04.068-.11.178-.188.33-.1-.15-.186-.252-.246-.32-.06-.07-.15-.16-.22-.24-.16-.187-.165-.298-.165-.298s-.005.11-.163.297c-.073.084-.16.174-.23.245-.06.06-.146.166-.25.324-.08-.16-.15-.27-.19-.34-.106-.166-.186-.3-.218-.386-.03-.082-.04-.18-.042-.185V7.1h2.172zM27.9 6.75c.018-.278.093-.806.363-1.165.204-.278.407-.443.557-.54.068-.045.122-.072.162-.09.04.02.095.045.163.09.147.097.352.262.557.54.27.36.345.887.362 1.164H27.9zm2.246 1.238c.06.085.125.21.193.36.09.232.12.46.12.63v2.49h-.64V8.98c0-.17.03-.41.12-.632.08-.176.14-.276.2-.358zm-.673 1.006v2.476H28.5V8.992c.007-.162.02-.386.137-.617.122-.242.354-.386.354-.386H29s.22.14.342.38c.12.24.13.45.14.62zm-1.437-.65c.09.223.106.464.11.635l.002 2.49h-.635v-2.5c.004-.17.02-.4.116-.63.07-.15.13-.278.19-.36.07.102.14.204.21.354zm2.92 3.533v.807h-3.94v-.807h3.94zm0 1.145v3.14h-.954V14.75c0-.47-.173-.866-.46-1.138-.152-.147-.338-.258-.542-.328-.013-.004-.012-.005-.012-.005h-.015c-.204.07-.39.18-.543.33-.286.27-.46.67-.46 1.14v1.41h-.957v-3.14h3.943zm-1.294 1.728v1.414h-1.35V14.75c.004-.546.27-.925.674-1.103.402.177.67.556.676 1.103zm1.294 1.753v3.995h-.876v-1.995c0-.468-.176-.875-.47-1.155-.157-.15-.344-.263-.55-.333-.01-.005-.074-.024-.074-.024l-.068.03c-.207.07-.396.187-.555.337-.294.28-.47.688-.47 1.154v1.99h-.88v-3.995h3.943zm-1.216 2.003v1.992h-1.506v-1.995c0-.384.14-.694.364-.91.11-.104.24-.184.388-.24.148.058.278.136.39.24.224.215.363.525.364.91v.003zm1.216 2.332v4.755h-3.94v-4.755h3.94zm0 5.095v3.103h-3.94v-3.103h3.94zm0 3.442v5.247h-3.94v-5.247h3.94zm.606 5.247V11.47h-.497V8.916c-.005-.317-.05-.52-.19-.844-.037-.082-.088-.172-.146-.262v-.92s-.01-.726-.3-1.27c-.33-.596-.96-.92-1.27-1.05-.07-.033-.12-.048-.13-.05l-.05-.02-.064.02c-.03.01-.53.167-1.004.812-.43.593-.444 1.354-.448 1.563v.907c-.06.085-.14.212-.227.4-.13.323-.14.623-.147.803v2.465h-.5v8.452l-1.367-1.367v-2.413l-.465-1.558-.68-5.34-.5 5.116-.467 1.782v2.234l-1.35 1.354v-8.264h-.496v-2.55c-.006-.316-.05-.518-.193-.843-.034-.082-.086-.172-.143-.262v-.92s0-.72-.3-1.27c-.327-.59-.958-.92-1.265-1.05-.07-.03-.117-.04-.126-.05l-.05-.02-.064.02c-.03.01-.53.17-1.006.82-.43.594-.444 1.355-.448 1.564v.907c-.06.085-.14.21-.23.4-.13.323-.14.623-.144.803v2.463h-.5v23.15H4.646c-1.702-3.13-2.672-6.72-2.672-10.536 0-6.108 2.475-11.637 6.477-15.64 4.01-4 9.54-6.48 15.64-6.48 6.11 0 11.64 2.473 15.64 6.48 4.01 4 6.48 9.53 6.48 15.635 0 3.817-.97 7.405-2.67 10.538l-11.97.002z"/></svg>